{"title":"Silent Night, Deadly Night (1984) [DvdRip] [Xvid] {1337x}-Noir","uid":4498416,"size":736980107,"categoryP":"video","categoryS":"movies","magnet":"?xt=urn:btih:ef6b8a9ef219f7821899323a8c4eb080170a2c07&amp;dn=Silent+Night%2C+Deadly+Night+%281984%29+%5BDvdRip%5D+%5BXvid%5D+%7B1337x%7D-Noir&amp;tr=udp%3A%2F%2Ftracker.openbittorrent.com%3A80&amp;tr=udp%3A%2F%2Fopen.demonii.com%3A1337&amp;tr=udp%3A%2F%2Ftracker.coppersurfer.tk%3A6969&amp;tr=udp%3A%2F%2Fexodus.desync.com%3A6969","seeders":3,"leechers":1,"uploader":"INoirI","files":3,"time":1226294705,"description":"                            Screenshots\n &lt;a href=&quot;\nhttp://i220.photobucket.com/albums/dd94/ItheplagueI/4-25.jpg&quot; rel=&quot;nofollow&quot; target=&quot;_NEW&quot;&gt;\nhttp://i220.photobucket.com/albums/dd94/ItheplagueI/4-25.jpg&lt;/a&gt;\n &lt;a href=&quot;\nhttp://i220.photobucket.com/albums/dd94/ItheplagueI/3-26.jpg&quot; rel=&quot;nofollow&quot; target=&quot;_NEW&quot;&gt;\nhttp://i220.photobucket.com/albums/dd94/ItheplagueI/3-26.jpg&lt;/a&gt;\n &lt;a href=&quot;\nhttp://i220.photobucket.com/albums/dd94/ItheplagueI/1-32.jpg&quot; rel=&quot;nofollow&quot; target=&quot;_NEW&quot;&gt;\nhttp://i220.photobucket.com/albums/dd94/ItheplagueI/1-32.jpg&lt;/a&gt;\n &lt;a href=&quot;\nhttp://i220.photobucket.com/albums/dd94/ItheplagueI/2-29.jpg&quot; rel=&quot;nofollow&quot; target=&quot;_NEW&quot;&gt;\nhttp://i220.photobucket.com/albums/dd94/ItheplagueI/2-29.jpg&lt;/a&gt;\n\n\n\n            *************************************\n            * Silent Night, Deadly Night (1984) *\n            *************************************\n\n________________________\n   General Information  |  \n________________________|\n_______________________________________________________________\nType                    : Movie                                \nFormat                  : AVI                                  \nFormat/Info             : Audio Video Interleave               \nFile size               : 702Mb                                \nDuration                : 1h 24mn                              \nLanguage                : English\nSource                  : Dvd NTSC                             \nSubtitles               : None                      \nGenre                   : Horror                   \nIMDB Link               : http://www.imdb.com/title/tt0088117/\nRating                  : 5.3/10                               \n_______________________________________________________________\n________________________________________________________________\nVideo\nFormat                           : MPEG-4 Visual\nCodec ID/Hint                    : XviD\nDuration                         : 1h 24mn\nBit rate                         : 1 016 Kbps\nWidth                            : 624 pixels\nHeight                           : 336 pixels\nDisplay aspect ratio             : 16/9\nFrame rate                       : 23.976 fps\nBits/(Pixel*Frame)               : 0.202\nStream size                      : 617 MiB (88%)          \n_______________________________________________________________\nAudio\nFormat                           : MPEG Audio\nCodec ID/Hint                    : MP3\nBit rate mode                    : Constant\nBit rate                         : 128 Kbps\nChannel(s)                       : 2 channels\nSampling rate                    : 44.1 KHz\nStream size                      : 78.3 MiB (11%)\nWriting library                  : LAME3.98.2\n_______________________________________________________________\n________________\n   Description  \n________________\n_______________________________________________________________\nA young boy watches his parents killed by a thief in a Santa \nsuit. He spends his youth in an orphanage, staying quietly \nto his self, but his mind is further bent by an ironhanded \nMother Superior. He finally gets a job at a local store, \nwhere he finally snaps when he is required to wear a Santa \nsuit, and goes on a killing spree that leads him slowly back \nto the orphanage\n_______________________________________________________________\n\n___________________\nNotes              \n___________________\n_______________________________________________________________\nBe aware People are starting to use my tag to create fake files\nMake sure its a real genuine release from me, I have never and \nwill never do Cams,Telesyncs,Telecine or RAR files.Try to check \n1337x.org to see if the file exist.\n \nFuck the fakers and enjoy my release.                   \n_______________________________________________________________\n\n___________________\nLooking\n___________________\n_______________________________________________________________\nAm looking for anybody who Wants to donate Direct or Line Audio\nPre Released R5&amp;#039;s, Screeners, Dvds. Got anything else usefull?\nContact me at  &lt;a class=&quot;__cf_email__&quot; href=&quot;/cdn-cgi/l/email-protection&quot; data-cfemail=&quot;713f1e18033140424246095f1e0316&quot;&gt;[email&amp;#160;protected]&lt;/a&gt;&lt;script cf-hash='f9e31' type=&quot;text/javascript&quot;&gt;\n/* &lt;![CDATA[ */!function(){try{var t=&quot;currentScript&quot;in document?document.currentScript:function(){for(var t=document.getElementsByTagName(&quot;script&quot;),e=t.length;e--;)if(t[e].getAttribute(&quot;cf-hash&quot;))return t[e]}();if(t&amp;&amp;t.previousSibling){var e,r,n,i,c=t.previousSibling,a=c.getAttribute(&quot;data-cfemail&quot;);if(a){for(e=&quot;&quot;,r=parseInt(a.substr(0,2),16),n=2;a.length-n;n+=2)i=parseInt(a.substr(n,2),16)^r,e+=String.fromCharCode(i);e=document.createTextNode(e),c.parentNode.replaceChild(e,c)}}}catch(u){}}();/* ]]&gt; */&lt;/script&gt;  or  &lt;a class=&quot;__cf_email__&quot; href=&quot;/cdn-cgi/l/email-protection&quot; data-cfemail=&quot;aee09ec7dceec6dbddc680cfc7&quot;&gt;[email&amp;#160;protected]&lt;/a&gt;&lt;script cf-hash='f9e31' type=&quot;text/javascript&quot;&gt;\n/* &lt;![CDATA[ */!function(){try{var t=&quot;currentScript&quot;in document?document.currentScript:function(){for(var t=document.getElementsByTagName(&quot;script&quot;),e=t.length;e--;)if(t[e].getAttribute(&quot;cf-hash&quot;))return t[e]}();if(t&amp;&amp;t.previousSibling){var e,r,n,i,c=t.previousSibling,a=c.getAttribute(&quot;data-cfemail&quot;);if(a){for(e=&quot;&quot;,r=parseInt(a.substr(0,2),16),n=2;a.length-n;n+=2)i=parseInt(a.substr(n,2),16)^r,e+=String.fromCharCode(i);e=document.createTextNode(e),c.parentNode.replaceChild(e,c)}}}catch(u){}}();/* ]]&gt; */&lt;/script&gt;\n_______________________________________________________________\n___________________\n  Post Information \n___________________\n_________________________________\nPosted by............: Noir     \nPosted on............: 11/09/2008\n_________________________________","torrent":{"xt":"urn:btih:ef6b8a9ef219f7821899323a8c4eb080170a2c07","amp;dn":"Silent+Night%2C+Deadly+Night+%281984%29+%5BDvdRip%5D+%5BXvid%5D+%7B1337x%7D-Noir","amp;tr":["udp%3A%2F%2Ftracker.openbittorrent.com%3A80","udp%3A%2F%2Fopen.demonii.com%3A1337","udp%3A%2F%2Ftracker.coppersurfer.tk%3A6969","udp%3A%2F%2Fexodus.desync.com%3A6969"],"infoHash":"ef6b8a9ef219f7821899323a8c4eb080170a2c07","infoHashBuffer":{"type":"Buffer","data":[239,107,138,158,242,25,247,130,24,153,50,58,140,78,176,128,23,10,44,7]},"announce":[],"urlList":[]}}